0
SECTION
2
HEADER
9
$INSUNITS
70
4
9
$ACADVER
1
AC1014
9
$HANDSEED
5
FFFF
0
ENDSEC
0
SECTION
2
TABLES
0
TABLE
2
VPORT
5
8
100
AcDbSymbolTable
0
ENDTAB
0
TABLE
2
LTYPE
5
5
100
AcDbSymbolTable
0
LTYPE
5
14
100
AcDbSymbolTableRecord
100
AcDbLinetypeTableRecord
2
BYBLOCK
70
0
0
LTYPE
5
15
100
AcDbSymbolTableRecord
100
AcDbLinetypeTableRecord
2
BYLAYER
70
0
0
ENDTAB
0
TABLE
2
LAYER
5
2
100
AcDbSymbolTable
70
2
0
LAYER
5
50
100
AcDbSymbolTableRecord
100
AcDbLayerTableRecord
2
0
70
0
6
CONTINUOUS
0
ENDTAB
0
TABLE
2
STYLE
5
3
100
AcDbSymbolTable
70
1
0
STYLE
5
11
100
AcDbSymbolTableRecord
100
AcDbTextStyleTableRecord
2
STANDARD
70
0
0
ENDTAB
0
TABLE
2
VIEW
5
6
100
AcDbSymbolTable
70
0
0
ENDTAB
0
TABLE
2
UCS
5
7
100
AcDbSymbolTable
70
0
0
ENDTAB
0
TABLE
2
APPID
5
9
100
AcDbSymbolTable
70
2
0
APPID
5
12
100
AcDbSymbolTableRecord
100
AcDbRegAppTableRecord
2
ACAD
70
0
0
ENDTAB
0
TABLE
2
DIMSTYLE
5
A
100
AcDbSymbolTable
70
1
0
ENDTAB
0
TABLE
2
BLOCK_RECORD
5
1
100
AcDbSymbolTable
70
1
0
BLOCK_RECORD
5
1F
100
AcDbSymbolTableRecord
100
AcDbBlockTableRecord
2
*MODEL_SPACE
0
BLOCK_RECORD
5
1B
100
AcDbSymbolTableRecord
100
AcDbBlockTableRecord
2
*PAPER_SPACE
0
ENDTAB
0
ENDSEC
0
SECTION
2
BLOCKS
0
BLOCK
5
20
100
AcDbEntity
100
AcDbBlockBegin
2
*MODEL_SPACE
0
ENDBLK
5
21
100
AcDbEntity
100
AcDbBlockEnd
0
BLOCK
5
1C
100
AcDbEntity
100
AcDbBlockBegin
2
*PAPER_SPACE
0
ENDBLK
5
1D
100
AcDbEntity
100
AcDbBlockEnd
0
ENDSEC
0
SECTION
2
ENTITIES
0
LWPOLYLINE
5
100
100
AcDbEntity
8
0
100
AcDbPolyline
90
4
70
1
43
0.0
10
0
20
0
10
0
20
200
10
200
20
200
10
200
20
0
0
SPLINE
5
101
100
AcDbEntity
8
0
100
AcDbSpline
70
4
71
5
72
91
73
85
74
0
42
0.000000001
43
0.0000000001
44
0.0000000001
40
0
40
0
40
0
40
0
40
0
40
0
40
0.012500000000000001
40
0.025000000000000001
40
0.037500000000000006
40
0.050000000000000003
40
0.0625
40
0.074999999999999997
40
0.087499999999999994
40
0.099999999999999992
40
0.11249999999999999
40
0.12499999999999999
40
0.13749999999999998
40
0.14999999999999999
40
0.16250000000000001
40
0.17500000000000002
40
0.18750000000000003
40
0.20000000000000004
40
0.21250000000000005
40
0.22500000000000006
40
0.23750000000000007
40
0.25000000000000006
40
0.26250000000000007
40
0.27500000000000008
40
0.28750000000000009
40
0.3000000000000001
40
0.31250000000000011
40
0.32500000000000012
40
0.33750000000000013
40
0.35000000000000014
40
0.36250000000000016
40
0.37500000000000017
40
0.38750000000000018
40
0.40000000000000019
40
0.4125000000000002
40
0.42500000000000021
40
0.43750000000000022
40
0.45000000000000023
40
0.46250000000000024
40
0.47500000000000026
40
0.48750000000000027
40
0.50000000000000022
40
0.51250000000000018
40
0.52500000000000013
40
0.53750000000000009
40
0.55000000000000004
40
0.5625
40
0.57499999999999996
40
0.58749999999999991
40
0.59999999999999987
40
0.61249999999999982
40
0.62499999999999978
40
0.63749999999999973
40
0.64999999999999969
40
0.66249999999999964
40
0.6749999999999996
40
0.68749999999999956
40
0.69999999999999951
40
0.71249999999999947
40
0.72499999999999942
40
0.73749999999999938
40
0.74999999999999933
40
0.76249999999999929
40
0.77499999999999925
40
0.7874999999999992
40
0.79999999999999916
40
0.81249999999999911
40
0.82499999999999907
40
0.83749999999999902
40
0.84999999999999898
40
0.86249999999999893
40
0.87499999999999889
40
0.88749999999999885
40
0.8999999999999988
40
0.91249999999999876
40
0.92499999999999871
40
0.93749999999999867
40
0.94999999999999862
40
0.96249999999999858
40
0.97499999999999853
40
0.98749999999999849
40
1
40
1
40
1
40
1
40
1
40
1
41
1
41
1
41
1
41
1
41
1
41
1
41
1
41
1
41
1
41
1
41
1
41
1
41
1
41
1
41
1
41
1
41
1
41
1
41
1
41
1
41
1
41
1
41
1
41
1
41
1
41
1
41
1
41
1
41
1
41
1
41
1
41
1
41
1
41
1
41
1
41
1
41
1
41
1
41
1
41
1
41
1
41
1
41
1
41
1
41
1
41
1
41
1
41
1
41
1
41
1
41
1
41
1
41
1
41
1
41
1
41
1
41
1
41
1
41
1
41
1
41
1
41
1
41
1
41
1
41
1
41
1
41
1
41
1
41
1
41
1
41
1
41
1
41
1
41
1
41
1
41
1
41
1
41
1
41
1
41
1
41
1
41
1
41
1
41
1
41
1
10
780
20
321
30
0
10
778.36599345055686
20
321.00745572627079
30
0
10
775.11979996571381
20
321.01849391174198
30
0
10
770.31596735902735
20
321.02343128551041
30
0
10
764.0418163612195
20
321.00676962720581
30
0
10
756.41268273953744
20
320.94649543976618
30
0
10
748.98283377126518
20
320.84473230681346
30
0
10
741.72311990909247
20
320.69741027000384
30
0
10
734.58545466522469
20
320.49784551162867
30
0
10
727.49554258975888
20
320.23588148365138
30
0
10
720.36433509480071
20
319.89863713074931
30
0
10
713.10487206999881
20
319.47175037549232
30
0
10
705.64800249132054
20
318.94045366713249
30
0
10
697.9570641854292
20
318.29072200108391
30
0
10
690.04696230117656
20
317.5103846222683
30
0
10
681.97508779609643
20
316.59026704864169
30
0
10
673.82381002211014
20
315.52528695866965
30
0
10
665.68559574078336
20
314.31565506637361
30
0
10
657.6475552018718
20
312.96784922610789
30
0
10
649.77501667494357
20
311.49614358023905
30
0
10
642.09923781531779
20
309.92251895567682
30
0
10
634.62180992278957
20
308.27029846549061
30
0
10
627.31651022738424
20
306.55881369588923
30
0
10
620.13199398862093
20
304.79752915965622
30
0
10
612.99439967308876
20
302.98070441914774
30
0
10
605.80916880953612
20
301.08096606930377
30
0
10
598.47693337340206
20
299.05865054074758
30
0
10
590.90992703350753
20
296.87201013812074
30
0
10
583.04925917247817
20
294.48762688995095
30
0
10
574.87947842696735
20
291.88955826820029
30
0
10
566.45025801099325
20
289.09200149422583
30
0
10
557.86891567575208
20
286.13740026268027
30
0
10
549.27142718775178
20
283.08384148924767
30
0
10
540.80032978912755
20
279.99581890263318
30
0
10
532.57859447699252
20
276.93316437281976
30
0
10
524.6880079786489
20
273.94181799702483
30
0
10
517.13869215039483
20
271.04119739524629
30
0
10
509.86886460452575
20
268.22300752846172
30
0
10
502.77709520255024
20
265.46232782541949
30
0
10
495.7462563047406
20
262.72553027087463
30
0
10
488.67015105657055
20
259.9792871351064
30
0
10
481.48060623851177
20
257.1995566769653
30
0
10
474.1696994495004
20
254.3792818106902
30
0
10
466.7633363844418
20
251.52270625106473
30
0
10
459.29998358700578
20
248.64105032914281
30
0
10
451.80606879128118
20
245.74743613390035
30
0
10
444.27594626282985
20
242.85267978359727
30
0
10
436.64185640407021
20
239.95932686048627
30
0
10
428.7916275625746
20
237.06393902211673
30
0
10
420.60856046983986
20
234.16319525740207
30
0
10
412.0031599043063
20
231.25860367606651
30
0
10
402.95067829369776
20
228.36218362952053
30
0
10
393.52063429598979
20
225.50083566408551
30
0
10
383.92410155258978
20
222.72359356180209
30
0
10
374.47764088588627
20
220.09538924853808
30
0
10
365.52667495874164
20
217.68428983596868
30
0
10
357.38415950502741
20
215.55114158492032
30
0
10
350.25751970144114
20
213.73746273179381
30
0
10
344.19298862739538
20
212.25580237538981
30
0
10
338.98106730733105
20
211.07466751983202
30
0
10
334.22002333277538
20
210.12536711237556
30
0
10
329.48863673116489
20
209.32378388824844
30
0
10
324.48321466666329
20
208.5875749483418
30
0
10
319.17765364161664
20
207.85559214069218
30
0
10
313.70541698347171
20
207.08982637164956
30
0
10
308.24365905808463
20
206.27648635303302
30
0
10
302.87916035666149
20
205.42873296555186
30
0
10
297.53644495762808
20
204.58449177452835
30
0
10
292.08337328848728
20
203.78973053034912
30
0
10
286.39487931821515
20
203.0858969227138
30
0
10
280.45248754183399
20
202.49249051533241
30
0
10
274.35467673831994
20
202.00405284543123
30
0
10
268.23716564969908
20
201.60224024173547
30
0
10
262.22164524838752
20
201.26334383771047
30
0
10
256.34209539321955
20
200.96890358484856
30
0
10
250.51679919834186
20
200.71084361575038
30
0
10
244.60300481363754
20
200.48728950950746
30
0
10
238.43254016816556
20
200.30041597599188
30
0
10
231.85872582271423
20
200.15327581100351
30
0
10
224.78703119071389
20
200.04772408235553
30
0
10
217.16016211427734
20
199.98489785659376
30
0
10
210.59219092997091
20
199.9692360916265
30
0
10
205.39970460956488
20
199.97702376517626
30
0
10
201.81963686356886
20
199.99089471209311
30
0
10
200
20
200
30
0
0
SPLINE
5
102
100
AcDbEntity
8
0
100
AcDbSpline
70
4
71
5
72
29
73
23
74
0
42
0.000000001
43
0.0000000001
44
0.0000000001
40
0.014359663541490096
40
0.014359663541490096
40
0.014359663541490096
40
0.014359663541490096
40
0.014359663541490096
40
0.014359663541490096
40
0.025000000000000001
40
0.037500000000000006
40
0.050000000000000003
40
0.0625
40
0.074999999999999997
40
0.087499999999999994
40
0.099999999999999992
40
0.11249999999999999
40
0.12499999999999999
40
0.13749999999999998
40
0.14999999999999999
40
0.16250000000000001
40
0.17500000000000002
40
0.18750000000000003
40
0.20000000000000004
40
0.21250000000000005
40
0.22500000000000006
40
0.22614316813510654
40
0.22614316813510654
40
0.22614316813510654
40
0.22614316813510654
40
0.22614316813510654
40
0.22614316813510654
41
1
41
1
41
1
41
1
41
1
41
1
41
1
41
1
41
1
41
1
41
1
41
1
41
1
41
1
41
1
41
1
41
1
41
1
41
1
41
1
41
1
41
1
41
1
10
770.7745301355294
20
351.01726820653153
30
0
10
769.42855599114591
20
351.01604586489708
30
0
10
766.51840752566511
20
351.01033211884339
30
0
10
762.09310461023756
20
350.99126274763091
30
0
10
756.23219336122349
20
350.94387119748251
30
0
10
749.0350512074549
20
350.8455678622505
30
0
10
741.78697970878204
20
350.69888794242888
30
0
10
734.66104443160714
20
350.5002217981887
30
0
10
727.58358693633568
20
350.23950050820127
30
0
10
720.46610062172795
20
349.90393500678152
30
0
10
713.22196593481124
20
349.47925302415223
30
0
10
705.78203403222437
20
348.95076345140234
30
0
10
698.10913256825984
20
348.30449464407934
30
0
10
690.21709576308172
20
347.52829671013495
30
0
10
682.16235642171432
20
346.61297181738348
30
0
10
674.02642742792875
20
345.55336431144804
30
0
10
665.90123842659546
20
344.34954144118433
30
0
10
657.87373505931919
20
343.0077808562848
30
0
10
651.43870808292888
20
341.80837227033396
30
0
10
646.66992635037809
20
340.85324507976446
30
0
10
643.48685917286286
20
340.18825131061294
30
0
10
641.83720855757201
20
339.83654755383429
30
0
10
641.6990638732043
20
339.80704560974527
30
0
0
SPLINE
5
103
100
AcDbEntity
8
0
100
AcDbSpline
70
4
71
5
72
41
73
35
74
0
42
0.000000001
43
0.0000000001
44
0.0000000001
40
0.23280778122236556
40
0.23280778122236556
40
0.23280778122236556
40
0.23280778122236556
40
0.23280778122236556
40
0.23280778122236556
40
0.23750000000000007
40
0.25000000000000006
40
0.26250000000000007
40
0.27500000000000008
40
0.28750000000000009
40
0.3000000000000001
40
0.31250000000000011
40
0.32500000000000012
40
0.33750000000000013
40
0.35000000000000014
40
0.36250000000000016
40
0.37500000000000017
40
0.38750000000000018
40
0.40000000000000019
40
0.4125000000000002
40
0.42500000000000021
40
0.43750000000000022
40
0.45000000000000023
40
0.46250000000000024
40
0.47500000000000026
40
0.48750000000000027
40
0.50000000000000022
40
0.51250000000000018
40
0.52500000000000013
40
0.53750000000000009
40
0.55000000000000004
40
0.5625
40
0.57499999999999996
40
0.58749999999999991
40
0.5991775289953738
40
0.5991775289953738
40
0.5991775289953738
40
0.5991775289953738
40
0.5991775289953738
40
0.5991775289953738
41
1
41
1
41
1
41
1
41
1
41
1
41
1
41
1
41
1
41
1
41
1
41
1
41
1
41
1
41
1
41
1
41
1
41
1
41
1
41
1
41
1
41
1
41
1
41
1
41
1
41
1
41
1
41
1
41
1
41
1
41
1
41
1
41
1
41
1
41
1
10
637.69906387709466
20
338.9365370284346
30
0
10
637.1395344942697
20
338.81254706811342
30
0
10
635.09409992855558
20
338.35651234093831
30
0
10
631.59047795781885
20
337.55827761786702
30
0
10
626.67696302816864
20
336.40093420307403
30
0
10
620.39824145497266
20
334.86397192474357
30
0
10
613.27307664842317
20
333.05283721402395
30
0
10
606.10433659480782
20
331.16045931898168
30
0
10
598.79303391604901
20
329.14764672206854
30
0
10
591.25107590948051
20
326.97277690644682
30
0
10
583.41831530504373
20
324.60204687514693
30
0
10
575.27703761899045
20
322.0185804507841
30
0
10
566.87332712831346
20
319.23491029174033
30
0
10
558.31189288321457
20
316.29222302589051
30
0
10
549.72702799061221
20
313.2477087893983
30
0
10
541.2607944572311
20
310.16545351018777
30
0
10
533.03715419768923
20
307.10547141642161
30
0
10
525.14038432795019
20
304.11449998223418
30
0
10
517.58535453221339
20
301.21366235287871
30
0
10
510.31385558819466
20
298.3959942972686
30
0
10
503.2268232465392
20
295.63752289667639
30
0
10
496.20787092191
20
292.90505399227459
30
0
10
489.15006103003429
20
290.16520728361667
30
0
10
481.98188057490881
20
287.39308129878816
30
0
10
474.69190573552248
20
284.58060928250723
30
0
10
467.30431991425519
20
281.73139441343181
30
0
10
459.85722337759705
20
278.85625132778728
30
0
10
452.37847001888497
20
275.96824042081198
30
0
10
444.86583514547726
20
273.07848860206616
30
0
10
437.25706435294165
20
270.19025059067252
30
0
10
429.54523508096304
20
267.33833841060527
30
0
10
423.14667778881653
20
265.06041506617129
30
0
10
418.19662932113681
20
263.35964469561901
30
0
10
414.85230128013518
20
262.23898184076108
30
0
10
413.21816755103697
20
261.69805446994519
30
0
0
LINE
5
104
100
AcDbEntity
8
0
100
AcDbLine
10
637.69906387709466
20
338.9365370284346
30
0
11
637.69906387320418
21
329.80704560974527
31
0
0
LINE
5
105
100
AcDbEntity
8
0
100
AcDbLine
10
641.6990638732043
20
329.80704560974527
30
0
11
641.6990638732043
21
339.80704560974527
31
0
0
LINE
5
106
100
AcDbEntity
8
0
100
AcDbLine
10
637.69906387320418
20
329.80704560974527
30
0
11
641.6990638732043
21
329.80704560974527
31
0
0
LINE
5
107
100
AcDbEntity
8
0
100
AcDbLine
10
769.72067908595602
20
351.01726825184528
30
0
11
769.72067908595602
21
341.01726825184528
31
0
0
LINE
5
108
100
AcDbEntity
8
0
100
AcDbLine
10
773.72067908595614
20
341.01726825184528
30
0
11
773.72067908595614
21
351.01726825184528
31
0
0
SPLINE
5
109
100
AcDbEntity
8
0
100
AcDbSpline
70
4
71
5
72
12
73
6
74
0
42
0.000000001
43
0.0000000001
44
0.0000000001
40
0
40
0
40
0
40
0
40
0
40
0
40
0.0097251615343295628
40
0.0097251615343295628
40
0.0097251615343295628
40
0.0097251615343295628
40
0.0097251615343295628
40
0.0097251615343295628
41
1
41
1
41
1
41
1
41
1
41
1
10
780
20
351
30
0
10
778.73097712563322
20
351.00579021731329
30
0
10
777.46853451417348
20
351.01041235204787
30
0
10
776.21267206849382
20
351.01386639599923
30
0
10
774.96339043757303
20
351.01615227128696
30
0
10
773.72067908595625
20
351.01726825184534
30
0
0
LINE
5
110
100
AcDbEntity
8
0
100
AcDbLine
10
769.72067908595602
20
341.01726825184528
30
0
11
773.72067908595614
21
341.01726825184528
31
0
0
LINE
5
111
100
AcDbEntity
8
0
100
AcDbLine
10
780
20
321
30
0
11
780
21
351
31
0
0
LINE
5
112
100
AcDbEntity
8
0
100
AcDbLine
10
182.13695929800124
20
212.99999999999997
30
0
11
212.13695929800124
21
212.99999999999997
31
0
0
LINE
5
113
100
AcDbEntity
8
0
100
AcDbLine
10
182.13695929800124
20
209
30
0
11
200
21
209
31
0
0
LINE
5
114
100
AcDbEntity
8
0
100
AcDbLine
10
182.13695929800124
20
212.99999999999997
30
0
11
182.13695929800124
21
209
31
0
0
LINE
5
115
100
AcDbEntity
8
0
100
AcDbLine
10
212.13695929800124
20
217
30
0
11
182.13695929800124
21
217
31
0
0
LINE
5
116
100
AcDbEntity
8
0
100
AcDbLine
10
182.13695929800124
20
230.00000000000043
30
0
11
182.13695929800124
21
216.99999999999994
31
0
0
LINE
5
117
100
AcDbEntity
8
0
100
AcDbLine
10
202.13695929800124
20
230.00000000000043
30
0
11
182.13695929800124
21
230.00000000000043
31
0
0
SPLINE
5
118
100
AcDbEntity
8
0
100
AcDbSpline
70
4
71
5
72
43
73
37
74
0
42
0.000000001
43
0.0000000001
44
0.0000000001
40
0.60483157561827661
40
0.60483157561827661
40
0.60483157561827661
40
0.60483157561827661
40
0.60483157561827661
40
0.60483157561827661
40
0.61249999999999982
40
0.62499999999999978
40
0.63749999999999973
40
0.64999999999999969
40
0.66249999999999964
40
0.6749999999999996
40
0.68749999999999956
40
0.69999999999999951
40
0.71249999999999947
40
0.72499999999999942
40
0.73749999999999938
40
0.74999999999999933
40
0.76249999999999929
40
0.77499999999999925
40
0.7874999999999992
40
0.79999999999999916
40
0.81249999999999911
40
0.82499999999999907
40
0.83749999999999902
40
0.84999999999999898
40
0.86249999999999893
40
0.87499999999999889
40
0.88749999999999885
40
0.8999999999999988
40
0.91249999999999876
40
0.92499999999999871
40
0.93749999999999867
40
0.94999999999999862
40
0.96249999999999858
40
0.97499999999999853
40
0.98749999999999849
40
1
40
1
40
1
40
1
40
1
40
1
41
1
41
1
41
1
41
1
41
1
41
1
41
1
41
1
41
1
41
1
41
1
41
1
41
1
41
1
41
1
41
1
41
1
41
1
41
1
41
1
41
1
41
1
41
1
41
1
41
1
41
1
41
1
41
1
41
1
41
1
41
1
41
1
41
1
41
1
41
1
41
1
41
1
10
409.21816729964524
20
260.38961162688094
30
0
10
408.12136176480817
20
260.03507298730761
30
0
10
405.21597620265743
20
259.1034626108368
30
0
10
400.4238861773531
20
257.59911085332283
30
0
10
393.62740192201818
20
255.53702743233981
30
0
10
384.79161273137959
20
252.96980812134362
30
0
10
375.33447305950847
20
250.32989034573444
30
0
10
366.33944275224218
20
247.90017206085622
30
0
10
358.12376859151527
20
245.74234873786455
30
0
10
350.90632661037137
20
243.89997961501575
30
0
10
344.75199988084631
20
242.38888197785943
30
0
10
339.47995440250747
20
241.1824283051746
30
0
10
334.70077291714057
20
240.21483947003844
30
0
10
329.99296113323578
20
239.40337302081215
30
0
10
325.03222897677006
20
238.66485226348502
30
0
10
319.76416354883196
20
237.93591658040816
30
0
10
314.3112925330642
20
237.17627902068477
30
0
10
308.84899457809405
20
236.36953360466629
30
0
10
303.48218741509231
20
235.52558705379468
30
0
10
298.15103117383194
20
234.68016223384512
30
0
10
292.7285703172796
20
233.87879016786377
30
0
10
287.0862549637967
20
233.16395616025872
30
0
10
281.1872604384406
20
232.55839891106535
30
0
10
275.11618030052159
20
232.0589077015853
30
0
10
269.00238323300903
20
231.64836035567888
30
0
10
262.96987543472324
20
231.30332785004626
30
0
10
257.06994711422453
20
231.00424214246465
30
0
10
251.24118514790766
20
230.74205850472038
30
0
10
245.35852595645423
20
230.51435837291189
30
0
10
239.26842279952803
20
230.32303244024257
30
0
10
232.83081799611415
20
230.17126731976728
30
0
10
225.95413156618804
20
230.06108117367341
30
0
10
218.58331714430633
20
229.99368180401797
30
0
10
212.26973611249181
20
229.97444717930676
30
0
10
207.29606529800685
20
229.97960843404229
30
0
10
203.8743219086715
20
229.99175229925655
30
0
10
202.13695929800124
20
230.00000000000043
30
0
0
LINE
5
119
100
AcDbEntity
8
0
100
AcDbLine
10
212.13695929800124
20
212.99999999999997
30
0
11
212.13695929800124
21
216.99999999999994
31
0
0
LINE
5
120
100
AcDbEntity
8
0
100
AcDbLine
10
200
20
200
30
0
11
200
21
209
31
0
0
LINE
5
121
100
AcDbEntity
8
0
100
AcDbLine
10
413.21816784293003
20
251.69805456656695
30
0
11
413.21816784293003
21
261.69805456656695
31
0
0
LINE
5
122
100
AcDbEntity
8
0
100
AcDbLine
10
409.21816729964524
20
260.38961162688094
30
0
11
409.21816784293003
21
251.69805456656695
31
0
0
LINE
5
123
100
AcDbEntity
8
0
100
AcDbLine
10
409.21816784293003
20
251.69805456656695
30
0
11
413.21816784292997
21
251.69805456656695
31
0
0
ENDSEC
0
SECTION
2
OBJECTS
0
DICTIONARY
5
C
100
AcDbDictionary
3
ACAD_GROUP
350
D
3
ACAD_MLINESTYLE
350
17
0
DICTIONARY
5
D
100
AcDbDictionary
0
DICTIONARY
5
1A
330
C
100
AcDbDictionary
0
DICTIONARY
5
17
100
AcDbDictionary
0
ENDSEC
0
EOF
